<svg xmlns="http://www.w3.org/2000/svg" viewBox="0 0 214.68 161.93"><g id="leader"><path d="M100.92,99.86a14.31,14.31,0,1,1,14.32-14.31A14.32,14.32,0,0,1,100.92,99.86Zm0-24.62a10.31,10.31,0,1,0,10.32,10.31A10.31,10.31,0,0,0,100.92,75.24Z"/></g><g id="devops"><path d="M102,117.87a7.32,7.32,0,0,1-7.31-7.31v-.25a2.78,2.78,0,0,0-1.85-2.55l-.1,0a2.83,2.83,0,0,0-3.13.56l-.16.16a7.23,7.23,0,0,1-5.16,2.14h0a7.25,7.25,0,0,1-5.16-2.14.08.08,0,0,1,0,0,7.31,7.31,0,0,1,0-10.3l.17-.17a2.88,2.88,0,0,0-2-4.85h-.47a7.31,7.31,0,0,1,0-14.62H77a2.81,2.81,0,0,0,2.56-1.85s0-.07,0-.11A2.82,2.82,0,0,0,79,73.37l-.15-.15a7.31,7.31,0,0,1,5.17-12.48h0a7.26,7.26,0,0,1,5.17,2.13l0,0,.14.14a2.81,2.81,0,0,0,3.11.55,1.75,1.75,0,0,1,.51-.14A2.81,2.81,0,0,0,94.47,61v-.47a7.31,7.31,0,0,1,14.62,0v.25a2.88,2.88,0,0,0,4.87,2l.15-.15a7.3,7.3,0,0,1,5.17-2.15h0a7.27,7.27,0,0,1,5.13,2.11l0,0a7.32,7.32,0,0,1,0,10.33l-.18.17a2.83,2.83,0,0,0-.55,3.12,1.71,1.71,0,0,1,.15.71v.22A1.75,1.75,0,0,1,122.13,79a1.76,1.76,0,0,1-1.75-1.62,6.31,6.31,0,0,1,1.42-6.64l.18-.18a3.82,3.82,0,0,0,0-5.36l0,0A3.77,3.77,0,0,0,119.28,64h0a3.76,3.76,0,0,0-2.69,1.12l-.17.17a6.38,6.38,0,0,1-10.83-4.51v-.26a3.81,3.81,0,0,0-7.62,0V61a6.34,6.34,0,0,1-3.84,5.81,1.84,1.84,0,0,1-.56.14,6.31,6.31,0,0,1-6.63-1.41l-.18-.19,0,0a3.79,3.79,0,0,0-2.67-1.08h0a3.77,3.77,0,0,0-2.69,1.11,3.81,3.81,0,0,0,0,5.39l.16.17a6.56,6.56,0,0,1-4.47,11h-.3a3.81,3.81,0,0,0,0,7.62h.48a6.38,6.38,0,0,1,4.53,10.81l-.18.18a3.81,3.81,0,0,0,0,5.39l0,0a3.74,3.74,0,0,0,2.66,1.09h0A3.79,3.79,0,0,0,87,106l.17-.16a6.55,6.55,0,0,1,11,4.47v.29a3.81,3.81,0,0,0,7.62,0v-.47a6.38,6.38,0,0,1,10.82-4.53l.15.15,0,0a3.79,3.79,0,0,0,2.69,1.12h0a3.81,3.81,0,0,0,2.7-6.51l-.17-.17a6.37,6.37,0,0,1,4.51-10.82h.26a3.82,3.82,0,0,0,3.81-3.81,1.75,1.75,0,0,1,3.5,0,7.32,7.32,0,0,1-7.31,7.31h-.25a2.87,2.87,0,0,0-2,4.86l.15.15a7.32,7.32,0,0,1-5.16,12.49h0a7.27,7.27,0,0,1-5.13-2.11l0,0-.17-.17a2.79,2.79,0,0,0-3.11-.55,2.84,2.84,0,0,0-1.74,2.6v.46A7.32,7.32,0,0,1,102,117.87Z"/><path d="M100.92,129.77a43.64,43.64,0,1,1,43.64-43.63A43.69,43.69,0,0,1,100.92,129.77Zm0-83.77a40.14,40.14,0,1,0,40.14,40.14A40.19,40.19,0,0,0,100.92,46Z"/><path d="M147.49,129.77H105a1.75,1.75,0,1,1,0-3.5h42.48a1.75,1.75,0,0,1,0,3.5Z"/><path d="M145.3,135.58a1.75,1.75,0,0,1-1.28-2.94l5.4-5.81a1.75,1.75,0,1,1,2.56,2.38l-5.4,5.81A1.74,1.74,0,0,1,145.3,135.58Z"/><path d="M150.7,129.77a1.74,1.74,0,0,1-1.28-.56L144,123.4a1.75,1.75,0,1,1,2.56-2.39l5.4,5.82a1.75,1.75,0,0,1-1.28,2.94Z"/><path d="M102,117.87a7.32,7.32,0,0,1-7.31-7.31v-.25a2.78,2.78,0,0,0-1.85-2.55l-.1,0a2.83,2.83,0,0,0-3.13.56l-.16.16a7.23,7.23,0,0,1-5.16,2.14h0a7.25,7.25,0,0,1-5.16-2.14.08.08,0,0,1,0,0,7.31,7.31,0,0,1,0-10.3l.17-.17a2.81,2.81,0,0,0,.55-3.11,1.91,1.91,0,0,1-.13-.51,2.83,2.83,0,0,0-2.47-1.45h-.47a7.31,7.31,0,0,1,0-14.62H77a2.88,2.88,0,0,0,2-4.87l-.15-.15a7.31,7.31,0,0,1,5.17-12.48h0a7.26,7.26,0,0,1,5.17,2.13l0,0,.14.14a2.81,2.81,0,0,0,3.11.55,1.78,1.78,0,0,1,.71-.15h.22a1.75,1.75,0,0,1,.13,3.5,6.31,6.31,0,0,1-6.63-1.41l-.18-.19,0,0a3.79,3.79,0,0,0-2.67-1.08h0a3.77,3.77,0,0,0-2.69,1.11,3.81,3.81,0,0,0,0,5.39l.16.17A6.38,6.38,0,0,1,77,81.74h-.26a3.81,3.81,0,0,0,0,7.62h.48A6.31,6.31,0,0,1,83,93.2a1.54,1.54,0,0,1,.14.56,6.29,6.29,0,0,1-1.41,6.63l-.18.18a3.81,3.81,0,0,0,0,5.39l0,0a3.74,3.74,0,0,0,2.66,1.09h0A3.79,3.79,0,0,0,87,106l.17-.16a6.55,6.55,0,0,1,11,4.47v.29a3.81,3.81,0,0,0,7.62,0v-.47a6.38,6.38,0,0,1,10.82-4.53l.15.15,0,0a3.79,3.79,0,0,0,2.69,1.12h0a3.81,3.81,0,0,0,2.7-6.51l-.17-.17a6.57,6.57,0,0,1,4.48-11.05h.29a3.81,3.81,0,1,0,0-7.61h-.47A6.38,6.38,0,0,1,121.8,70.7l.18-.18a3.82,3.82,0,0,0,0-5.36l0,0A3.77,3.77,0,0,0,119.28,64h0a3.76,3.76,0,0,0-2.69,1.12l-.17.17a6.38,6.38,0,0,1-10.83-4.51v-.26a3.82,3.82,0,0,0-3.81-3.81,1.75,1.75,0,0,1,0-3.5,7.32,7.32,0,0,1,7.31,7.31v.25a2.88,2.88,0,0,0,4.87,2l.15-.15a7.3,7.3,0,0,1,5.17-2.15h0a7.27,7.27,0,0,1,5.13,2.11l0,0a7.32,7.32,0,0,1,0,10.33l-.18.17a2.88,2.88,0,0,0,2,4.86h.47a7.31,7.31,0,1,1,0,14.61h-.25A2.83,2.83,0,0,0,124,94.49a.42.42,0,0,1,0,.1,2.82,2.82,0,0,0,.57,3.13l.15.15a7.32,7.32,0,0,1-5.16,12.49h0a7.27,7.27,0,0,1-5.13-2.11l0,0-.17-.17a2.79,2.79,0,0,0-3.11-.55,2.84,2.84,0,0,0-1.74,2.6v.46A7.32,7.32,0,0,1,102,117.87Z"/></g></svg>