<svg xmlns="http://www.w3.org/2000/svg" viewBox="0 0 214.68 161.93"><defs><style>.cls-1,.cls-2{fill:#fff;}.cls-1,.cls-2,.cls-3,.cls-4{stroke:#000;stroke-width:4px;}.cls-1,.cls-4{stroke-linecap:round;}.cls-1,.cls-2,.cls-3{stroke-miterlimit:10;}.cls-3,.cls-4{fill:none;}.cls-4{stroke-linejoin:round;}</style></defs><g id="leader"><line class="cls-1" x1="86.2" y1="108.34" x2="86.2" y2="131.1"/><line class="cls-1" x1="103.92" y1="108.34" x2="103.92" y2="131.1"/><circle class="cls-2" cx="95.06" cy="75.67" r="11.32"/><path class="cls-3" d="M103.92,87.76c-1.27,3-4.84,5.23-9,5.23-3.86,0-7.18-1.85-8.68-4.5"/><path class="cls-4" d="M95.75,87h0a18.18,18.18,0,0,1,18.18,18.18v26.53a0,0,0,0,1,0,0H76.19a0,0,0,0,1,0,0V106.55A19.56,19.56,0,0,1,95.75,87Z"/><circle class="cls-3" cx="103.92" cy="34.73" r="12.31"/><circle class="cls-3" cx="144.66" cy="64.34" r="18.44"/><line class="cls-4" x1="134.9" y1="80.23" x2="118.59" y2="100.22"/><line class="cls-3" x1="133.63" y1="49.56" x2="116.23" y2="40.15"/></g></svg>