<svg xmlns="http://www.w3.org/2000/svg" viewBox="0 0 214.68 161.93"><defs><style>.cls-1,.cls-2{fill:#fff;}.cls-1,.cls-2,.cls-3{stroke:#000;stroke-miterlimit:10;stroke-width:4px;}.cls-2{stroke-linecap:round;}.cls-3{fill:none;}</style></defs><g id="leader"><path class="cls-1" d="M83.33,81.21H71.66A19.56,19.56,0,0,0,52.1,100.78v24.89a1.6,1.6,0,0,0,1.6,1.61H88.23a1.61,1.61,0,0,0,1.61-1.61V97.58a3.31,3.31,0,0,1,.85-2.22l25.63-28.55a5.21,5.21,0,0,0,0-7.38l-.16-.17a5.21,5.21,0,0,0-7.38,0L92.27,77.34C87.87,81.33,85.8,81,83.33,81.21Z"/><line class="cls-2" x1="62.55" y1="103.86" x2="62.55" y2="126.61"/><circle class="cls-1" cx="78.51" cy="69.42" r="11.32"/><path class="cls-3" d="M87.46,80.91c-1.27,3-4.84,5.23-9,5.23-3.86,0-7.18-1.85-8.69-4.5"/><path class="cls-1" d="M143.54,81.21h11.67a19.57,19.57,0,0,1,19.56,19.57v24.89a1.61,1.61,0,0,1-1.61,1.61H138.63a1.61,1.61,0,0,1-1.6-1.61V97.58a3.36,3.36,0,0,0-.85-2.22L110.54,66.81a5.21,5.21,0,0,1,0-7.38l.17-.17a5.21,5.21,0,0,1,7.38,0l16.5,18.08C139,81.33,141.06,81,143.54,81.21Z"/><line class="cls-2" x1="164.32" y1="103.86" x2="164.32" y2="126.61"/><circle class="cls-1" cx="148.35" cy="69.42" r="11.32"/><path class="cls-3" d="M139.4,80.91c1.27,3,4.84,5.23,9,5.23,3.85,0,7.18-1.85,8.68-4.5"/><line class="cls-3" x1="97.45" y1="42.22" x2="105.05" y2="53.7"/><line class="cls-3" x1="129.85" y1="42.22" x2="122.25" y2="53.7"/><line class="cls-3" x1="113.65" y1="34.66" x2="113.65" y2="48.43"/></g></svg>