<svg id="Layer_1" data-name="Layer 1" xmlns="http://www.w3.org/2000/svg" viewBox="0 0 303.85 343.59"><defs><style>.cls-1{fill:#ffa300;}.cls-2{fill:#fbb03b;}.cls-3{fill:#fff;}</style></defs><polygon class="cls-1" points="203.71 318 168.78 285.51 143.3 260.03 131.5 318 203.71 318"/><circle class="cls-2" cx="152.92" cy="154.08" r="134.85"/><path d="M217.47,140.31a80.62,80.62,0,0,0-84-74.33c-43.3,1.89-77,38.46-77,81.8V318h80.62a80.61,80.61,0,0,0,80.62-80.62V172.8H252.4Z"/><path class="cls-3" d="M201.14,163.61l-.09,90.06-60-67.16L123.9,167.29a44.26,44.26,0,0,1,17.24-70.84h0a44.26,44.26,0,0,1,60,41.4Z"/><path d="M168.4,136.3a13,13,0,1,0,10.16,10.17A13,13,0,0,0,168.4,136.3Z"/></svg>