<svg id="Layer_1" data-name="Layer 1" xmlns="http://www.w3.org/2000/svg" viewBox="0 0 517.95 506.41"><defs><style>.cls-1{fill:#ffa300;}.cls-2{fill:#fbb03b;}.cls-3{fill:#fff;}</style></defs><path d="M107.28,413a20.3,20.3,0,0,1-8.47,8q-5.73,3.06-14.2,3.05H74.16V448.9H57.3V379.69H84.61a31,31,0,0,1,14,2.86,19.67,19.67,0,0,1,8.58,7.89A23,23,0,0,1,110.05,402,22.26,22.26,0,0,1,107.28,413Zm-16.76-4.58a9.85,9.85,0,0,0,0-12.82q-2.35-2.26-7.19-2.27H74.16v17.36h9.17Q88.16,410.65,90.52,408.38Z"/><path d="M171.37,425.44H133.21c.27,3.41,1.37,6,3.31,7.83a10.06,10.06,0,0,0,7.14,2.71q6.32,0,8.78-5.32h17.94a24.56,24.56,0,0,1-5,9.76,24.87,24.87,0,0,1-9,6.8,28.86,28.86,0,0,1-12.12,2.47,29.54,29.54,0,0,1-14.4-3.45,24.56,24.56,0,0,1-9.86-9.86,33.61,33.61,0,0,1,0-30,24.26,24.26,0,0,1,9.81-9.86,32,32,0,0,1,28.69-.1,24,24,0,0,1,9.71,9.56,29.06,29.06,0,0,1,3.5,14.5A44.81,44.81,0,0,1,171.37,425.44Zm-17-9.37a8.68,8.68,0,0,0-3-6.9,10.87,10.87,0,0,0-7.39-2.57,10.7,10.7,0,0,0-7.15,2.47,10.94,10.94,0,0,0-3.6,7Z"/><path d="M230.47,399.56q5.76,6.26,5.77,17.2V448.9H219.48V419c0-3.68-1-6.54-2.86-8.58a11.19,11.19,0,0,0-15.38,0q-2.87,3.06-2.86,8.58V448.9H181.52v-55h16.86v7.29a17.88,17.88,0,0,1,6.9-5.77,22,22,0,0,1,9.76-2.12Q224.7,393.29,230.47,399.56Z"/><path d="M280.06,395.46a17.32,17.32,0,0,1,6.75,6.22v-7.79h16.86V448.8a31,31,0,0,1-3,13.75,23,23,0,0,1-9.17,9.81Q285.33,476,276.17,476q-12.23,0-19.82-5.77a21.74,21.74,0,0,1-8.67-15.62h16.66a8,8,0,0,0,3.74,5,13.75,13.75,0,0,0,7.3,1.82,11.45,11.45,0,0,0,8.33-3q3.1-3,3.1-9.61V441a18.62,18.62,0,0,1-6.8,6.26,20.54,20.54,0,0,1-10.15,2.42,22.58,22.58,0,0,1-12.33-3.5,24.09,24.09,0,0,1-8.72-10,36.23,36.23,0,0,1,0-29.82,23.87,23.87,0,0,1,8.72-9.86,22.79,22.79,0,0,1,12.33-3.45A21.25,21.25,0,0,1,280.06,395.46Zm3.25,16a11.84,11.84,0,0,0-17.05-.05q-3.51,3.6-3.5,9.9t3.5,10a11.73,11.73,0,0,0,17.05.05q3.51-3.64,3.5-10T283.31,411.44Z"/><path d="M395.85,393.89,381,448.9H362.33l-8.67-35.69-9,35.69H326.15l-15-55H328l7.79,39.33,9.27-39.33h17.84L372.29,433,380,393.89Z"/><path d="M404.48,385.56a8.5,8.5,0,0,1-2.81-6.46,8.59,8.59,0,0,1,2.81-6.56,10.22,10.22,0,0,1,7.25-2.61,10.07,10.07,0,0,1,7.14,2.61,8.56,8.56,0,0,1,2.81,6.56,8.46,8.46,0,0,1-2.81,6.46,10.07,10.07,0,0,1-7.14,2.61A10.22,10.22,0,0,1,404.48,385.56Zm15.63,8.33v55H403.25v-55Z"/><path d="M482.26,399.56q5.78,6.26,5.77,17.2V448.9H471.27V419q0-5.52-2.86-8.58a11.19,11.19,0,0,0-15.38,0c-1.9,2-2.86,4.9-2.86,8.58V448.9H433.32v-55h16.85v7.29a17.84,17.84,0,0,1,6.91-5.77,22,22,0,0,1,9.76-2.12Q476.5,393.29,482.26,399.56Z"/><polygon class="cls-1" points="323.45 318 288.53 285.51 263.05 260.03 251.25 318 323.45 318"/><circle class="cls-2" cx="272.67" cy="154.08" r="134.85"/><path d="M337.22,140.31a80.63,80.63,0,0,0-84-74.33c-43.3,1.89-77,38.46-77,81.8V318h80.61a80.61,80.61,0,0,0,80.62-80.62V172.8h34.69Z"/><path class="cls-3" d="M320.88,163.61l-.08,90.06-60-67.16-17.17-19.22a44.26,44.26,0,0,1,17.25-70.84h0a44.26,44.26,0,0,1,60,41.4Z"/><path d="M288.14,136.3a13,13,0,1,0,10.17,10.17A13,13,0,0,0,288.14,136.3Z"/></svg>